<?xml version="1.0" standalone="no"?>
<!DOCTYPE svg PUBLIC "-//W3C//DTD SVG 20010904//EN"
 "http://www.w3.org/TR/2001/REC-SVG-20010904/DTD/svg10.dtd">
<svg version="1.0" xmlns="http://www.w3.org/2000/svg"
 width="24.000000pt" height="24.000000pt" viewBox="0 0 24.000000 24.000000"
 preserveAspectRatio="xMidYMid meet">

<g transform="translate(0.000000,24.000000) scale(0.100000,-0.100000)"
fill="#000000" stroke="none">
<path d="M79 209 c-25 -25 -17 -39 9 -16 22 20 43 22 60 5 26 -26 13 -37 -45
-40 l-58 -3 0 -65 0 -65 75 0 75 0 3 54 c6 111 -62 187 -119 130z m101 -119
l0 -50 -60 0 -60 0 0 50 0 50 60 0 60 0 0 -50z"/>
<path d="M104 99 c-10 -17 13 -36 27 -22 12 12 4 33 -11 33 -5 0 -12 -5 -16
-11z"/>
</g>
</svg>
